<svg width="24" height="22" viewBox="0 0 24 22" fill="none" xmlns="http://www.w3.org/2000/svg">
<path fill-rule="evenodd" clip-rule="evenodd" d="M18.5055 17.2217C15.6938 19.9114 11.5304 20.4925 8.12331 18.9853C7.62033 18.7916 7.20797 18.6351 6.81595 18.6351C5.72401 18.6413 4.36488 19.654 3.6585 18.9791C2.95211 18.3034 4.01169 17.0023 4.01169 15.9516C4.01169 15.5765 3.85451 15.1891 3.65202 14.7071C2.07561 11.4487 2.68398 7.46496 5.49564 4.77614C9.08487 1.3417 14.9162 1.3417 18.5055 4.77525C22.1012 8.215 22.0947 13.7881 18.5055 17.2217Z" stroke="#199A8E" stroke-width="1.5" stroke-linecap="round" stroke-linejoin="round"/>
<path d="M15.6238 11.3638H15.6321" stroke="#199A8E" stroke-width="2" stroke-linecap="round" stroke-linejoin="round"/>
<path d="M11.9358 11.3638H11.9441" stroke="#199A8E" stroke-width="2" stroke-linecap="round" stroke-linejoin="round"/>
<path d="M8.24736 11.3638H8.25564" stroke="#199A8E" stroke-width="2" stroke-linecap="round" stroke-linejoin="round"/>
</svg>
