<svg width="25" height="24" viewBox="0 0 25 24" fill="none" xmlns="http://www.w3.org/2000/svg">
<path d="M19.5102 20.1375L13.9746 14.6473C13.4803 15.0395 12.9119 15.35 12.2694 15.5787C11.6269 15.8075 10.9432 15.9219 10.2183 15.9219C8.42247 15.9219 6.90281 15.3052 5.65927 14.0719C4.41507 12.8379 3.79297 11.3304 3.79297 9.54931C3.79297 7.76826 4.41507 6.26074 5.65927 5.02676C6.90281 3.79342 8.42247 3.17676 10.2183 3.17676C12.014 3.17676 13.534 3.79342 14.7782 5.02676C16.0218 6.26074 16.6435 7.76826 16.6435 9.54931C16.6435 10.2683 16.5282 10.9464 16.2976 11.5836C16.0669 12.2209 15.7539 12.7846 15.3585 13.2748L20.9188 18.7895C21.1001 18.9692 21.1907 19.1898 21.1907 19.4513C21.1907 19.7127 21.0918 19.9415 20.8941 20.1375C20.7129 20.3173 20.4822 20.4072 20.2022 20.4072C19.9221 20.4072 19.6914 20.3173 19.5102 20.1375ZM10.2183 13.9611C11.4539 13.9611 12.5043 13.5323 13.3696 12.6748C14.2342 11.8166 14.6665 10.7748 14.6665 9.54931C14.6665 8.32382 14.2342 7.28199 13.3696 6.42382C12.5043 5.5663 11.4539 5.13754 10.2183 5.13754C8.98262 5.13754 7.93217 5.5663 7.0669 6.42382C6.20229 7.28199 5.76998 8.32382 5.76998 9.54931C5.76998 10.7748 6.20229 11.8166 7.0669 12.6748C7.93217 13.5323 8.98262 13.9611 10.2183 13.9611Z" fill="black"/>
</svg>
