<svg width="24" height="24" viewBox="0 0 24 24" fill="none" xmlns="http://www.w3.org/2000/svg">
<path fill-rule="evenodd" clip-rule="evenodd" d="M10.4726 19.8844C10.9303 20.3943 11.518 20.6744 12.1278 20.6744H12.1287C12.7411 20.6744 13.3314 20.3943 13.7901 19.8835C14.0357 19.6122 14.4546 19.5901 14.7259 19.8349C14.9981 20.0797 15.0202 20.4994 14.7754 20.7707C14.0614 21.5634 13.122 22 12.1287 22H12.1269C11.1362 21.9991 10.1986 21.5626 9.48722 20.7699C9.24243 20.4986 9.26453 20.0788 9.53671 19.8349C9.8089 19.5892 10.2278 19.6113 10.4726 19.8844ZM12.1718 3C16.0999 3 18.7387 6.05944 18.7387 8.91651C18.7387 10.3861 19.1125 11.0092 19.5093 11.6702C19.9017 12.3224 20.3462 13.0629 20.3462 14.4627C20.0378 18.0392 16.3041 18.3308 12.1718 18.3308C8.03951 18.3308 4.30491 18.0392 4.00001 14.5193C3.99737 13.0629 4.44188 12.3224 4.83426 11.6702L4.97277 11.437C5.31383 10.8509 5.60486 10.2132 5.60486 8.91651C5.60486 6.05944 8.24365 3 12.1718 3ZM12.1718 4.32558C9.08319 4.32558 6.93044 6.74521 6.93044 8.91651C6.93044 10.7538 6.42053 11.603 5.96984 12.3524C5.6084 12.9542 5.32295 13.4297 5.32295 14.4627C5.47053 16.1294 6.57077 17.0052 12.1718 17.0052C17.7419 17.0052 18.8766 16.0906 19.0233 14.4053C19.0206 13.4297 18.7352 12.9542 18.3737 12.3524C17.923 11.603 17.4131 10.7538 17.4131 8.91651C17.4131 6.74521 15.2604 4.32558 12.1718 4.32558Z" fill="#199A8E"/>
<path fill-rule="evenodd" clip-rule="evenodd" d="M13.7898 19.8839C13.3312 20.3947 12.7409 20.6748 12.1284 20.6748C11.5187 20.6748 10.9301 20.3947 10.4723 19.8848C10.2276 19.6117 9.80867 19.5896 9.53648 19.8353C9.2643 20.0792 9.24221 20.4989 9.487 20.7703C10.1984 21.5629 11.136 21.9995 12.1267 22.0004H12.1284C13.1217 22.0004 14.0611 21.5638 14.7752 20.7711C15.02 20.4998 14.9979 20.0801 14.7257 19.8353C14.4544 19.5905 14.0355 19.6126 13.7898 19.8839ZM14.8494 20.8381C14.118 21.6501 13.1524 22.1004 12.1284 22.1004H12.1267C11.1055 22.0995 10.1415 21.6492 9.41275 20.8372C9.13098 20.525 9.15628 20.042 9.46948 19.761C9.78276 19.4783 10.2651 19.5037 10.5468 19.818C10.9882 20.3096 11.5498 20.5748 12.1276 20.5748C12.7081 20.5748 13.2733 20.3095 13.7154 19.8171C13.9979 19.5051 14.4802 19.4791 14.7927 19.761C15.1058 20.0427 15.1313 20.5257 14.8494 20.8381ZM20.4456 14.4717C20.3669 15.384 20.0689 16.0934 19.5954 16.6417C19.1228 17.1889 18.4812 17.5688 17.7257 17.8327C16.2188 18.3591 14.2357 18.4312 12.1716 18.4312C10.1074 18.4312 8.12426 18.3591 6.61782 17.8399C5.86266 17.5797 5.22125 17.2052 4.74893 16.6661C4.27566 16.1258 3.97798 15.4268 3.90016 14.5283L3.89943 14.5199C3.89674 13.0368 4.35228 12.2773 4.74818 11.6193C4.74824 11.6192 4.74813 11.6194 4.74818 11.6193L4.88611 11.3871C4.88619 11.387 4.88604 11.3872 4.88611 11.3871C5.2197 10.8137 5.50463 10.1929 5.50463 8.9169C5.50463 6.00224 8.19059 2.90039 12.1716 2.90039C16.1525 2.90039 18.8385 6.00224 18.8385 8.9169C18.8385 9.64288 18.9308 10.1549 19.0697 10.5649C19.2089 10.9756 19.3962 11.2882 19.5948 11.6191C19.9903 12.2764 20.446 13.036 20.446 14.4631L20.4456 14.4717ZM4.83403 11.6706C4.44166 12.3228 3.99715 13.0633 3.99978 14.5197C4.30468 18.0396 8.03928 18.3312 12.1716 18.3312C16.3038 18.3312 20.0376 18.0396 20.346 14.4631C20.346 13.0633 19.9015 12.3228 19.5091 11.6706C19.1123 11.0096 18.7385 10.3865 18.7385 8.9169C18.7385 6.05983 16.0997 3.00039 12.1716 3.00039C8.24342 3.00039 5.60463 6.05983 5.60463 8.9169C5.60463 10.2136 5.3136 10.8512 4.97255 11.4374L4.83403 11.6706ZM12.1716 4.42597C9.1331 4.42597 7.03021 6.80578 7.03021 8.9169C7.03021 9.84522 6.90132 10.528 6.71351 11.0753C6.52598 11.6217 6.28083 12.0294 6.05558 12.4039C5.87419 12.7059 5.71742 12.9676 5.6047 13.2802C5.49293 13.5902 5.42313 13.9544 5.42273 14.4587C5.45904 14.8638 5.55248 15.2114 5.75063 15.508C5.949 15.8049 6.2583 16.0597 6.74161 16.2675C7.71452 16.6859 9.37116 16.9056 12.1716 16.9056C14.9561 16.9056 16.6135 16.6762 17.5908 16.2461C18.0764 16.0324 18.3893 15.7711 18.5906 15.4676C18.7916 15.1646 18.8869 14.8109 18.923 14.4015C18.9213 13.9265 18.8511 13.5768 18.739 13.2738C18.6259 12.9679 18.4692 12.7064 18.2878 12.4043C18.0625 12.0298 17.8171 11.6217 17.6296 11.0753C17.4418 10.528 17.3129 9.84522 17.3129 8.9169C17.3129 6.80578 15.21 4.42597 12.1716 4.42597ZM18.3735 12.3528C18.735 12.9546 19.0204 13.4301 19.0231 14.4057C18.8764 16.0909 17.7417 17.0056 12.1716 17.0056C6.57054 17.0056 5.47031 16.1298 5.32273 14.4631C5.32273 13.4301 5.60817 12.9546 5.96961 12.3528C6.42031 11.6034 6.93021 10.7542 6.93021 8.9169C6.93021 6.7456 9.08296 4.32597 12.1716 4.32597C15.2602 4.32597 17.4129 6.7456 17.4129 8.9169C17.4129 10.7542 17.9228 11.6034 18.3735 12.3528Z" fill="#199A8E"/>
</svg>
