<svg width="106" height="116" viewBox="0 0 106 116" fill="none" xmlns="http://www.w3.org/2000/svg">
<g clip-path="url(#clip0_2618_7329)">
<g style="mix-blend-mode:multiply">
<path d="M99.2432 105.314C99.2432 104.357 95.9726 103.589 91.8843 103.589C87.796 103.589 84.5254 104.357 84.5254 105.314C84.5254 106.271 87.796 107.039 91.8843 107.039C95.9726 107.039 99.2432 106.263 99.2432 105.314Z" fill="#FFF0D2"/>
</g>
<path d="M97.1005 105.224L96.2828 99.5414C96.2751 99.4941 96.2532 99.4503 96.22 99.4157C96.1868 99.3811 96.1439 99.3574 96.097 99.3476C96.0501 99.3379 96.0013 99.3426 95.9571 99.3611C95.9129 99.3797 95.8754 99.4112 95.8495 99.4514L94.3532 101.904C94.3328 101.942 94.3027 101.973 94.266 101.995C94.2293 102.017 94.1874 102.029 94.1447 102.029C94.1019 102.029 94.06 102.017 94.0233 101.995C93.9866 101.973 93.9565 101.942 93.9361 101.904L91.9983 97.4973C91.9797 97.4553 91.9493 97.4197 91.9108 97.3947C91.8724 97.3698 91.8275 97.3564 91.7816 97.3564C91.7357 97.3564 91.6909 97.3698 91.6524 97.3947C91.6139 97.4197 91.5836 97.4553 91.565 97.4973L89.6271 101.913C89.608 101.95 89.5788 101.982 89.5427 102.004C89.5066 102.027 89.465 102.038 89.4227 102.038C89.3803 102.038 89.3387 102.027 89.3026 102.004C89.2665 101.982 89.2373 101.95 89.2182 101.913L87.6729 99.4596C87.647 99.4193 87.6094 99.3879 87.5652 99.3693C87.521 99.3508 87.4723 99.3461 87.4253 99.3558C87.3784 99.3656 87.3355 99.3893 87.3024 99.4239C87.2692 99.4585 87.2473 99.5023 87.2395 99.5496L86.4219 105.273L97.1005 105.224Z" fill="#94BE67"/>
</g>
<g clip-path="url(#clip1_2618_7329)">
<g style="mix-blend-mode:multiply" opacity="0.25">
<path d="M20.7178 28.1057C20.7178 27.3407 18.9107 26.7148 16.6848 26.7148C14.4589 26.7148 12.6553 27.3338 12.6553 28.1057C12.6553 28.8776 14.4589 29.4965 16.6848 29.4965C18.9107 29.4965 20.7178 28.8707 20.7178 28.1057Z" fill="#E8BD69"/>
</g>
<path d="M14.1958 9.29063C14.1958 9.29063 16.4633 23.4599 13.8496 28.2235H18.6961C18.6961 28.2235 18.4296 15.4486 15.5424 8.93945L14.1958 9.29063Z" fill="#9E594D"/>
<path d="M16.7783 13.2129H14.8362C14.7033 13.2049 14.579 13.1445 14.4902 13.0449C14.4014 12.9453 14.3553 12.8145 14.362 12.6809V12.6218C14.3553 12.4883 14.4014 12.3575 14.4902 12.2579C14.579 12.1583 14.7033 12.0979 14.8362 12.0898H16.7783C16.9112 12.0979 17.0355 12.1583 17.1243 12.2579C17.2131 12.3575 17.2592 12.4883 17.2526 12.6218V12.6809C17.2592 12.8145 17.2131 12.9453 17.1243 13.0449C17.0355 13.1445 16.9112 13.2049 16.7783 13.2129Z" fill="#7C4134"/>
<path d="M17.3986 16.464H14.9996C14.8594 16.4559 14.728 16.3926 14.6341 16.2878C14.5401 16.183 14.491 16.0451 14.4977 15.9042V15.8381C14.491 15.6972 14.5401 15.5594 14.6341 15.4546C14.728 15.3497 14.8594 15.2864 14.9996 15.2783H17.3986C17.5395 15.2855 17.6717 15.3485 17.7665 15.4534C17.8612 15.5583 17.9107 15.6967 17.9041 15.8381V15.9042C17.9107 16.0457 17.8612 16.184 17.7665 16.2889C17.6717 16.3939 17.5395 16.4568 17.3986 16.464Z" fill="#7C4134"/>
<path d="M17.9766 19.7151H15.1206C14.9721 19.707 14.8328 19.6403 14.733 19.5297C14.6332 19.419 14.5809 19.2732 14.5875 19.124V19.0579C14.5809 18.9087 14.6332 18.7629 14.733 18.6522C14.8328 18.5415 14.9721 18.4749 15.1206 18.4668H17.9766C18.125 18.4749 18.2643 18.5415 18.3642 18.6522C18.464 18.7629 18.5163 18.9087 18.5097 19.0579V19.124C18.5163 19.2732 18.464 19.419 18.3642 19.5297C18.2643 19.6403 18.125 19.707 17.9766 19.7151Z" fill="#7C4134"/>
<path d="M18.4227 22.9662H15.1028C14.9476 22.9572 14.8021 22.8872 14.6979 22.7714C14.5936 22.6556 14.5388 22.5032 14.5455 22.3472V22.2742C14.5388 22.1182 14.5936 21.9658 14.6979 21.85C14.8021 21.7342 14.9476 21.6643 15.1028 21.6553H18.4227C18.5782 21.6634 18.7242 21.7331 18.8286 21.8491C18.9331 21.9651 18.9875 22.118 18.98 22.2742V22.3472C18.9875 22.5035 18.9331 22.6563 18.8286 22.7723C18.7242 22.8884 18.5782 22.9581 18.4227 22.9662Z" fill="#7C4134"/>
<path d="M18.5578 26.2172H14.7776C14.6156 26.2073 14.464 26.1341 14.3553 26.0131C14.2465 25.8922 14.1893 25.7333 14.196 25.5705V25.494C14.1884 25.3306 14.2452 25.1707 14.354 25.0491C14.4628 24.9274 14.615 24.8536 14.7776 24.8438H18.5578C18.7207 24.8527 18.8734 24.9262 18.9824 25.0481C19.0915 25.17 19.1479 25.3303 19.1394 25.494V25.5705C19.147 25.7335 19.0901 25.893 18.9812 26.0141C18.8722 26.1352 18.7201 26.2082 18.5578 26.2172Z" fill="#7C4134"/>
<path d="M18.6795 28.2343C18.6795 28.2343 18.4129 15.4594 15.5258 8.9502L15.3008 9.0093C16.3116 12.5177 18.3679 21.0888 16.7374 28.2343H18.6795Z" fill="#7C4134"/>
<path d="M15.6468 8.41422L7.13771 14.4992L5.72185 15.5145C5.2095 6.38011 15.3802 8.35858 15.6399 8.41074L15.6468 8.41422Z" fill="#77AE63"/>
<path d="M15.6399 8.39316C15.4218 8.36535 8.02395 7.37785 7.13773 14.4816L5.72187 15.4969C5.20953 6.36253 15.3664 8.34101 15.6399 8.39316Z" fill="#94BE67"/>
<path d="M15.6709 8.44565L5.25433 7.67373L3.52344 7.54856C8.93421 0.187505 15.5047 8.24397 15.6743 8.44217L15.6709 8.44565Z" fill="#77AE63"/>
<path d="M15.6709 8.44232C15.5185 8.27889 10.4782 2.78158 5.25433 7.67388L3.52344 7.54871C8.93075 0.187653 15.5012 8.23369 15.6709 8.44232Z" fill="#94BE67"/>
<path d="M15.1133 8.41422L23.6223 14.4992L25.0382 15.5145C25.5506 6.38011 15.3798 8.35858 15.1202 8.41074L15.1133 8.41422Z" fill="#77AE63"/>
<path d="M15.1201 8.39316C15.3382 8.36535 22.736 7.37785 23.6223 14.4816L25.0381 15.4969C25.5505 6.36253 15.3659 8.34101 15.1201 8.39316Z" fill="#94BE67"/>
<path d="M15.0894 8.44565L25.5059 7.67373L27.2368 7.54856C21.826 0.187505 15.2556 8.24397 15.0859 8.44217L15.0894 8.44565Z" fill="#77AE63"/>
<path d="M15.0889 8.44232C15.2412 8.27889 20.2815 2.78158 25.5054 7.67388L27.2363 7.54871C21.829 0.187653 15.2585 8.23369 15.0889 8.44232Z" fill="#94BE67"/>
<path d="M15.366 8.41412L9.70253 1.26518L8.74707 0.0690473C16.6296 -0.800232 15.3868 8.1742 15.3556 8.41412H15.366Z" fill="#77AE63"/>
<path d="M15.366 8.39019C15.366 8.19895 15.8922 1.70371 9.70253 1.24821L8.74707 0.0694587C16.6296 -0.810251 15.3868 8.16418 15.366 8.39019Z" fill="#94BE67"/>
<path d="M15.3659 8.45972L20.337 2.20091L21.1679 1.15777C14.2443 0.392809 15.3382 8.26848 15.3659 8.45972Z" fill="#77AE63"/>
<path d="M15.3664 8.45622C15.3664 8.28584 14.9025 2.58338 20.3375 2.19742L21.1684 1.15428C14.2482 0.378885 15.3387 8.25455 15.3664 8.45622Z" fill="#94BE67"/>
<path d="M14.1308 10.949C14.9797 10.949 15.6678 10.2578 15.6678 9.40517C15.6678 8.55253 14.9797 7.86133 14.1308 7.86133C13.2819 7.86133 12.5938 8.55253 12.5938 9.40517C12.5938 10.2578 13.2819 10.949 14.1308 10.949Z" fill="#9E594D"/>
<path d="M14.6742 7.95508C14.8308 8.18733 14.9214 8.45806 14.9364 8.73817C14.9514 9.01828 14.8901 9.29719 14.7591 9.54494C14.6281 9.79269 14.4324 9.99992 14.193 10.1444C13.9536 10.2888 13.6795 10.365 13.4002 10.3647C13.2206 10.3661 13.0422 10.3343 12.874 10.2708C13.0099 10.4724 13.1914 10.6388 13.4035 10.7565C13.6156 10.8742 13.8525 10.9399 14.0947 10.9481C14.3369 10.9564 14.5777 10.9069 14.7972 10.8039C15.0168 10.7009 15.209 10.5471 15.3582 10.3553C15.5073 10.1634 15.6092 9.93881 15.6555 9.69985C15.7017 9.4609 15.6911 9.21433 15.6244 8.9803C15.5577 8.74627 15.4368 8.5314 15.2717 8.35323C15.1065 8.17505 14.9018 8.03862 14.6742 7.95508Z" fill="#7C4134"/>
<path d="M16.6161 10.949C17.465 10.949 18.1532 10.2578 18.1532 9.40517C18.1532 8.55253 17.465 7.86133 16.6161 7.86133C15.7673 7.86133 15.0791 8.55253 15.0791 9.40517C15.0791 10.2578 15.7673 10.949 16.6161 10.949Z" fill="#9E594D"/>
<path d="M17.1419 7.95508C17.2986 8.18733 17.3892 8.45806 17.4042 8.73817C17.4191 9.01828 17.3578 9.29719 17.2268 9.54494C17.0959 9.79269 16.9002 9.99992 16.6608 10.1444C16.4213 10.2888 16.1473 10.365 15.868 10.3647C15.6884 10.3655 15.5101 10.3337 15.3418 10.2708C15.4777 10.4724 15.6591 10.6388 15.8713 10.7565C16.0834 10.8742 16.3203 10.9399 16.5625 10.9481C16.8047 10.9564 17.0454 10.9069 17.265 10.8039C17.4846 10.7009 17.6768 10.5471 17.826 10.3553C17.9751 10.1634 18.077 9.93881 18.1232 9.69985C18.1695 9.4609 18.1588 9.21433 18.0921 8.9803C18.0254 8.74627 17.9046 8.5314 17.7395 8.35323C17.5743 8.17505 17.3696 8.03862 17.1419 7.95508Z" fill="#7C4134"/>
<g style="mix-blend-mode:multiply" opacity="0.25">
<path d="M30.7263 30.5808C30.7263 29.8611 29.0196 29.2734 26.9183 29.2734C24.817 29.2734 23.1104 29.8611 23.1104 30.5808C23.1104 31.3006 24.8136 31.8917 26.9183 31.8917C29.0231 31.8917 30.7263 31.3041 30.7263 30.5808Z" fill="#E8BD69"/>
</g>
<path d="M28.3512 15.5566C28.3512 15.5566 26.5061 27.0937 28.6386 30.9707H24.7129C24.7129 30.9707 24.9275 20.5706 27.2781 15.2715L28.3512 15.5566Z" fill="#9E594D"/>
<path d="M26.2496 18.7524H27.8282C27.9369 18.7461 28.0387 18.6968 28.1113 18.6154C28.184 18.5339 28.2216 18.4269 28.2159 18.3177V18.269C28.2187 18.2152 28.2109 18.1612 28.1929 18.1104C28.1749 18.0595 28.1471 18.0127 28.1111 17.9727C28.0751 17.9326 28.0316 17.9001 27.983 17.877C27.9345 17.8538 27.8818 17.8406 27.8282 17.8379H26.2496C26.1959 17.8406 26.1433 17.8538 26.0948 17.877C26.0462 17.9001 26.0027 17.9326 25.9667 17.9727C25.9307 18.0127 25.9029 18.0595 25.8849 18.1104C25.8669 18.1612 25.8591 18.2152 25.8619 18.269V18.3177C25.8562 18.4269 25.8938 18.5339 25.9665 18.6154C26.0391 18.6968 26.1409 18.7461 26.2496 18.7524Z" fill="#7C4134"/>
<path d="M25.7517 21.3984H27.7042C27.8187 21.3895 27.9251 21.3356 28.0003 21.2483C28.0755 21.1611 28.1134 21.0476 28.1058 20.9325V20.8803C28.1114 20.7656 28.0716 20.6533 27.9951 20.5679C27.9185 20.4825 27.8115 20.4311 27.6973 20.4248H25.7517C25.6373 20.4311 25.5298 20.4824 25.4527 20.5677C25.3756 20.6529 25.3351 20.7652 25.3398 20.8803V20.9325C25.336 20.9903 25.3437 21.0483 25.3625 21.1031C25.3812 21.1579 25.4106 21.2085 25.4489 21.2518C25.4872 21.2952 25.5337 21.3304 25.5857 21.3556C25.6377 21.3807 25.6941 21.3953 25.7517 21.3984Z" fill="#7C4134"/>
<path d="M25.274 24.0618H27.6004C27.721 24.0555 27.8342 24.0014 27.9153 23.9115C27.9964 23.8216 28.0388 23.7031 28.0331 23.5819V23.5263C28.0388 23.4047 27.9965 23.2859 27.9155 23.1954C27.8345 23.1049 27.7213 23.0502 27.6004 23.043H25.274C25.1531 23.0502 25.0399 23.1049 24.9589 23.1954C24.8779 23.2859 24.8357 23.4047 24.8413 23.5263V23.5819C24.8357 23.7031 24.878 23.8216 24.9591 23.9115C25.0402 24.0014 25.1534 24.0555 25.274 24.0618Z" fill="#7C4134"/>
<path d="M24.91 26.6905H27.6102C27.7367 26.6833 27.8552 26.6264 27.9401 26.532C28.025 26.4376 28.0694 26.3134 28.0637 26.1863V26.1272C28.0694 26.0002 28.025 25.876 27.9401 25.7816C27.8552 25.6872 27.7367 25.6302 27.6102 25.623H24.91C24.7836 25.6302 24.6651 25.6872 24.5802 25.7816C24.4953 25.876 24.4509 26.0002 24.4565 26.1272V26.1863C24.4509 26.3134 24.4953 26.4376 24.5802 26.532C24.6651 26.6264 24.7836 26.6833 24.91 26.6905Z" fill="#7C4134"/>
<path d="M24.7991 29.3364H27.8766C28.0092 29.3292 28.1335 29.2696 28.2224 29.1705C28.3113 29.0715 28.3575 28.9411 28.3509 28.8079V28.7488C28.3575 28.6153 28.3114 28.4845 28.2226 28.3849C28.1338 28.2853 28.0095 28.2249 27.8766 28.2168H24.7991C24.6662 28.2249 24.5419 28.2853 24.4531 28.3849C24.3643 28.4845 24.3182 28.6153 24.3248 28.7488V28.8079C24.3182 28.9411 24.3644 29.0715 24.4533 29.1705C24.5422 29.2696 24.6665 29.3292 24.7991 29.3364Z" fill="#7C4134"/>
<path d="M24.7129 30.9707C24.7129 30.9707 24.9275 20.5706 27.2781 15.2715L27.4615 15.3202C26.6376 18.1749 24.9656 25.15 26.2949 30.9672L24.7129 30.9707Z" fill="#7C4134"/>
<path d="M27.1709 14.8295L34.0945 19.7843L35.2473 20.6084C35.6627 13.1743 27.3821 14.7842 27.1709 14.8295Z" fill="#77AE63"/>
<path d="M27.1748 14.8295C27.3548 14.8051 33.3679 13.9984 34.0984 19.7843L35.2512 20.6084C35.6666 13.1743 27.386 14.7842 27.1748 14.8295Z" fill="#94BE67"/>
<path d="M27.1367 14.871L35.6181 14.2416L37.027 14.1373C32.6237 8.1497 27.2752 14.6971 27.1402 14.8675L27.1367 14.871Z" fill="#77AE63"/>
<path d="M27.1533 14.8675C27.2745 14.7319 31.3905 10.2568 35.6312 14.2416L37.0402 14.1373C32.6368 8.1497 27.2883 14.6971 27.1533 14.8675Z" fill="#94BE67"/>
<path d="M27.6033 14.8295L20.6797 19.7843L19.52 20.6084C19.1046 13.1743 27.3852 14.7842 27.5964 14.8295H27.6033Z" fill="#77AE63"/>
<path d="M27.6006 14.8295C27.4205 14.8051 21.4074 13.9984 20.677 19.7843L19.5207 20.6084C19.1088 13.1743 27.3894 14.7842 27.6006 14.8295Z" fill="#94BE67"/>
<path d="M27.6247 14.871L19.1433 14.2416L17.7344 14.1373C22.1378 8.1497 27.4862 14.6971 27.6247 14.8675V14.871Z" fill="#77AE63"/>
<path d="M27.6247 14.8675C27.5001 14.7319 23.384 10.2568 19.1433 14.2416L17.7344 14.1373C22.1378 8.1497 27.4827 14.6971 27.6247 14.8675Z" fill="#94BE67"/>
<path d="M27.4102 14.8296L32.0178 9.01234L32.7863 8.0457C26.3716 7.35028 27.3825 14.6522 27.4067 14.8261L27.4102 14.8296Z" fill="#77AE63"/>
<path d="M27.4067 14.826C27.4067 14.6695 26.9775 9.38079 32.0178 9.01221L32.7863 8.04558C26.3716 7.33625 27.3825 14.6382 27.4067 14.826Z" fill="#94BE67"/>
<path d="M27.3993 14.8816L23.3525 9.77376L22.6602 8.92535C28.2925 8.30294 27.4063 14.7147 27.382 14.8782L27.3993 14.8816Z" fill="#77AE63"/>
<path d="M27.3993 14.8782C27.3993 14.7391 27.7767 10.1006 23.3525 9.77376L22.6602 8.92535C28.3098 8.30294 27.4236 14.7147 27.3993 14.8782Z" fill="#94BE67"/>
<path d="M27.1533 15.6503C27.1533 15.4014 27.2268 15.158 27.3645 14.951C27.5022 14.744 27.6979 14.5827 27.9269 14.4874C28.1559 14.3921 28.4079 14.3672 28.651 14.4158C28.8941 14.4644 29.1174 14.5842 29.2926 14.7603C29.4679 14.9363 29.5872 15.1606 29.6356 15.4048C29.6839 15.6489 29.6591 15.902 29.5643 16.132C29.4694 16.362 29.3088 16.5586 29.1027 16.6969C28.8966 16.8352 28.6543 16.909 28.4065 16.909C28.0741 16.909 27.7554 16.7764 27.5204 16.5404C27.2854 16.3043 27.1533 15.9842 27.1533 15.6503Z" fill="#9E594D"/>
<path d="M27.9775 14.4717C27.8285 14.6915 27.7528 14.9531 27.7614 15.2189C27.77 15.4847 27.8624 15.7408 28.0253 15.9505C28.1882 16.1601 28.4131 16.3124 28.6677 16.3853C28.9223 16.4582 29.1934 16.4481 29.4418 16.3563C29.3311 16.5197 29.1834 16.6545 29.011 16.7497C28.8385 16.8449 28.6461 16.8979 28.4494 16.9043C28.2527 16.9107 28.0573 16.8704 27.879 16.7866C27.7008 16.7028 27.5448 16.5779 27.4237 16.422C27.3026 16.2662 27.2199 16.0839 27.1823 15.8898C27.1446 15.6958 27.1531 15.4956 27.2071 15.3055C27.2611 15.1154 27.359 14.9408 27.4929 14.7959C27.6267 14.651 27.7928 14.5399 27.9775 14.4717Z" fill="#7C4134"/>
<path d="M26.3821 16.909C27.0742 16.909 27.6352 16.3455 27.6352 15.6503C27.6352 14.9551 27.0742 14.3916 26.3821 14.3916C25.69 14.3916 25.1289 14.9551 25.1289 15.6503C25.1289 16.3455 25.69 16.909 26.3821 16.909Z" fill="#9E594D"/>
<path d="M25.9521 14.4717C25.8254 14.661 25.7522 14.8813 25.7405 15.1092C25.7288 15.337 25.779 15.5638 25.8856 15.7652C25.9923 15.9666 26.1515 16.1351 26.3461 16.2527C26.5407 16.3703 26.7635 16.4325 26.9907 16.4328C27.136 16.4325 27.2801 16.4066 27.4164 16.3563C27.3057 16.5197 27.158 16.6545 26.9856 16.7497C26.8131 16.8449 26.6207 16.8979 26.424 16.9043C26.2273 16.9107 26.0319 16.8704 25.8537 16.7866C25.6754 16.7028 25.5194 16.5779 25.3983 16.422C25.2772 16.2662 25.1945 16.0839 25.1569 15.8898C25.1192 15.6958 25.1277 15.4956 25.1817 15.3055C25.2357 15.1154 25.3336 14.9408 25.4675 14.7959C25.6014 14.651 25.7674 14.5399 25.9521 14.4717Z" fill="#7C4134"/>
</g>
<path d="M20.7331 35.3089C15.6579 40.9837 -3.47562 48.8191 3.11052 56.8269C9.19811 64.2286 54.2141 56.0093 35.8168 82.5831C22.965 101.147 69.5529 106.978 104.5 110.792" stroke="#CD9E00" stroke-width="2" stroke-linecap="round" stroke-dasharray="9 9"/>
<path d="M70.5669 87.524C70.5669 86.3277 58.4858 85.3574 43.5842 85.3574C28.6827 85.3574 16.6016 86.3277 16.6016 87.524C16.6016 88.7203 28.6827 89.6961 43.5842 89.6961C58.4858 89.6961 70.5669 88.7258 70.5669 87.524Z" fill="#FFF0D2"/>
<path d="M56.3148 87.2484H30.3203C32.8076 83.2185 43.0566 66.6686 43.3897 67.0545C43.7229 67.4404 54.3605 83.5051 56.3148 87.2484Z" fill="#DD9D5B"/>
<path opacity="0.53" d="M42.4403 76.3439L40.6248 80.3518L41.9962 82.7665L42.5014 87.265H30.3203C32.8076 83.2351 43.0566 66.6852 43.3897 67.0711L41.4909 74.1497L42.4403 76.3439Z" fill="#9E594D"/>
<path d="M67.4914 87.5955C67.4914 87.5955 61.8728 87.386 56.132 87.2371C50.3912 87.0883 44.3951 86.9946 44.0176 87.2371L56.9981 69.5957L67.4914 87.5955Z" fill="#DD9D5B"/>
<path opacity="0.53" d="M58.214 76.3277L56.132 87.2489C50.3246 87.0945 44.3951 87.0063 44.0176 87.2489L56.9981 69.6074L56.393 74.8778L58.214 76.3277Z" fill="#9E594D"/>
<path d="M39.1811 87.2479H19.6104C21.4869 83.9016 29.1986 70.1578 29.454 70.461C29.7094 70.7642 37.7099 84.1386 39.1811 87.2479Z" fill="#DD9D5B"/>
<path opacity="0.53" d="M28.1715 76.834L29.0099 78.78L27.5608 84.2544V87.2479H19.6104C21.4869 83.9016 29.1986 70.1578 29.454 70.461L28.1715 76.834Z" fill="#9E594D"/>
<defs>
<clipPath id="clip0_2618_7329">
<rect width="14.7832" height="9.73012" fill="white" transform="translate(84.4678 97.3008)"/>
</clipPath>
<clipPath id="clip1_2618_7329">
<rect width="33.5239" height="31.8886" fill="white" transform="translate(3.51953)"/>
</clipPath>
</defs>
</svg>
