<svg width="40" height="40" viewBox="0 0 40 40" fill="none" xmlns="http://www.w3.org/2000/svg">
<path d="M37.7771 16.4615V36.1896C37.7768 36.3481 37.7121 36.5 37.5972 36.6121C37.4823 36.7242 37.3264 36.7873 37.1639 36.7876H33.4856L31.0337 33.7984L28.5819 36.7876H14.483V34.3954C14.483 34.2368 14.4184 34.0847 14.3034 33.9725C14.1884 33.8604 14.0324 33.7974 13.8697 33.7974C13.7071 33.7974 13.5511 33.8604 13.4361 33.9725C13.3211 34.0847 13.2565 34.2368 13.2565 34.3954V36.7876H4.81585C4.14913 36.7973 3.50491 36.5526 3.0205 36.1057C2.53609 35.6589 2.2498 35.0452 2.22266 34.3954V34.282C2.25339 33.6682 2.52522 33.0896 2.98174 32.6661C3.43826 32.2426 4.04443 32.0067 4.6745 32.0075H9.57819C9.65867 32.0076 9.73839 31.9923 9.81278 31.9623C9.88718 31.9324 9.95479 31.8884 10.0117 31.833C10.0687 31.7775 10.1139 31.7117 10.1447 31.6392C10.1756 31.5667 10.1914 31.489 10.1914 31.4105V15.8634H18.1602L19.9999 18.2545L21.8385 15.8634H23.6771L23.8304 16.0903C25.0165 17.8644 26.5277 19.4101 28.2883 20.6499C30.0373 19.4069 31.5376 17.8614 32.7147 16.0903C32.7636 16.0129 32.8234 15.9408 32.8615 15.8634H37.153C37.2346 15.8617 37.3157 15.8759 37.3915 15.9053C37.4674 15.9346 37.5365 15.9784 37.5947 16.0341C37.653 16.0898 37.6992 16.1563 37.7307 16.2297C37.7622 16.3031 37.7784 16.3819 37.7782 16.4615H37.7771Z" fill="#DB9923"/>
<path d="M37.7773 26.6238V27.8199C37.4182 27.821 37.0601 27.7807 36.7107 27.7C36.4119 27.6293 36.1233 27.5224 35.8517 27.3819C35.6104 27.2536 35.3809 27.1053 35.1656 26.9387C35.0656 26.8624 34.9923 26.7575 34.9561 26.6388C34.9199 26.5201 34.9224 26.3932 34.9634 26.276C34.9871 26.2136 35.02 26.155 35.0612 26.1021C35.1133 26.0404 35.1776 25.9895 35.2501 25.9523C35.3227 25.9152 35.4022 25.8926 35.4838 25.8859C35.5655 25.8792 35.6477 25.8885 35.7256 25.9132C35.8036 25.938 35.8756 25.9777 35.9376 26.03C36.0939 26.1538 36.2626 26.2622 36.441 26.3534C36.6336 26.4541 36.8396 26.5283 37.0532 26.5739C37.2917 26.6184 37.5346 26.6365 37.7773 26.628V26.6238Z" fill="#FCC63D"/>
<path d="M33.8961 25.805C33.7955 25.8042 33.6965 25.7795 33.608 25.7329C33.414 25.6343 33.2079 25.5602 32.9947 25.5123C32.7538 25.457 32.5072 25.4289 32.2597 25.4285C32.0971 25.4285 31.9411 25.3655 31.8261 25.2534C31.7111 25.1412 31.6465 24.9891 31.6465 24.8305C31.6465 24.6719 31.7111 24.5198 31.8261 24.4076C31.9411 24.2954 32.0971 24.2324 32.2597 24.2324C32.6167 24.2315 32.9725 24.2717 33.3198 24.3523C33.6207 24.4219 33.9112 24.5288 34.1842 24.6704C34.3074 24.7319 34.4057 24.8322 34.463 24.955C34.5203 25.0779 34.5333 25.216 34.4999 25.347C34.4666 25.478 34.3887 25.5941 34.2791 25.6765C34.1695 25.7589 34.0345 25.8026 33.8961 25.8007V25.805Z" fill="#FCC63D"/>
<path d="M28.3801 27.4477C28.2426 27.4482 28.1089 27.4037 28.0005 27.3213C27.892 27.2389 27.815 27.1234 27.7819 26.9933C27.7487 26.8632 27.7612 26.726 27.8174 26.6036C27.8736 26.4813 27.9703 26.3809 28.0919 26.3184C28.2628 26.2328 28.4267 26.1347 28.5823 26.0247C28.7541 25.8932 28.9085 25.7501 29.0781 25.6069C29.2477 25.4638 29.4402 25.2963 29.6359 25.1467C29.6952 25.0854 29.7671 25.037 29.847 25.0047C29.9268 24.9723 30.0128 24.9569 30.0992 24.9592C30.1856 24.9616 30.2705 24.9817 30.3484 25.0183C30.4263 25.055 30.4953 25.1072 30.551 25.1717C30.6067 25.2362 30.6478 25.3114 30.6716 25.3925C30.6954 25.4735 30.7013 25.5586 30.6891 25.642C30.6768 25.7255 30.6465 25.8055 30.6003 25.8767C30.5541 25.948 30.493 26.0089 30.4209 26.0555C30.2491 26.187 30.0947 26.3301 29.924 26.4733C29.7533 26.6164 29.563 26.7839 29.3662 26.9335C29.1523 27.0988 28.9251 27.247 28.6867 27.3767C28.5925 27.4259 28.4868 27.4504 28.3801 27.4477Z" fill="#FCC63D"/>
<path d="M25.8231 27.7183C25.7739 27.7236 25.7243 27.7236 25.6752 27.7183C25.3739 27.6475 25.0834 27.5388 24.8108 27.3949C24.5722 27.266 24.3449 27.1181 24.1312 26.9528C24.0634 26.9052 24.0062 26.8446 23.9632 26.7747C23.9203 26.7048 23.8924 26.627 23.8814 26.5463C23.8703 26.4655 23.8763 26.3833 23.899 26.3049C23.9217 26.2265 23.9605 26.1534 24.0132 26.0901C24.0659 26.0268 24.1313 25.9748 24.2054 25.937C24.2795 25.8993 24.3607 25.8768 24.444 25.8708C24.5274 25.8648 24.6111 25.8754 24.6901 25.9021C24.769 25.9288 24.8416 25.971 24.9032 26.026C25.0615 26.1468 25.2295 26.2549 25.4055 26.3494C25.5995 26.448 25.8056 26.5221 26.0188 26.57C26.1814 26.589 26.3297 26.6702 26.4309 26.7957C26.5321 26.9213 26.5781 27.081 26.5586 27.2396C26.5392 27.3982 26.4559 27.5428 26.3271 27.6415C26.1983 27.7402 26.0346 27.785 25.872 27.7661L25.8231 27.7183Z" fill="#FCC63D"/>
<path d="M22.863 25.805C22.7624 25.8042 22.6634 25.7795 22.5749 25.7329C22.3809 25.6343 22.1748 25.5602 21.9616 25.5123C21.7203 25.4574 21.4734 25.4293 21.2255 25.4285C21.0629 25.4285 20.9069 25.3655 20.7919 25.2534C20.6769 25.1412 20.6123 24.9891 20.6123 24.8305C20.6123 24.6719 20.6769 24.5198 20.7919 24.4076C20.9069 24.2954 21.0629 24.2324 21.2255 24.2324C21.5829 24.2314 21.9391 24.2716 22.2867 24.3523C22.5895 24.4214 22.8818 24.5284 23.1566 24.6704C23.277 24.7337 23.3724 24.8344 23.4277 24.9564C23.4831 25.0785 23.4952 25.215 23.4621 25.3446C23.4291 25.4741 23.3529 25.5892 23.2454 25.6718C23.1379 25.7544 23.0053 25.7997 22.8684 25.8007L22.863 25.805Z" fill="#FCC63D"/>
<path d="M17.9395 27.0606C17.8155 27.0623 17.694 27.0264 17.5917 26.958C17.4894 26.8895 17.4114 26.7919 17.3683 26.6784C17.3253 26.5649 17.3194 26.4413 17.3514 26.3244C17.3834 26.2075 17.4517 26.1032 17.547 26.0257C17.7188 25.8942 17.8852 25.7511 18.0439 25.6079C18.2026 25.4648 18.4114 25.2972 18.6017 25.1477C18.661 25.0864 18.7329 25.038 18.8128 25.0056C18.8926 24.9733 18.9786 24.9578 19.065 24.9602C19.1514 24.9626 19.2363 24.9827 19.3142 25.0193C19.3921 25.0559 19.4611 25.1082 19.5168 25.1727C19.5725 25.2372 19.6136 25.3124 19.6374 25.3935C19.6612 25.4745 19.6671 25.5596 19.6548 25.643C19.6426 25.7265 19.6123 25.8064 19.5661 25.8777C19.5199 25.9489 19.4588 26.0099 19.3867 26.0565C19.2084 26.1879 19.0496 26.3311 18.8844 26.4742C18.7191 26.6174 18.5223 26.7849 18.3266 26.9344C18.216 27.0182 18.0795 27.0627 17.9395 27.0606Z" fill="#FCC63D"/>
<path d="M15.7087 27.8201C15.3496 27.8211 14.9916 27.7809 14.6421 27.7003C14.3436 27.6297 14.0554 27.5228 13.7842 27.3822C13.7128 27.3453 13.6495 27.295 13.5981 27.2343C13.5466 27.1736 13.5079 27.1035 13.4842 27.0282C13.4604 26.9529 13.4521 26.8737 13.4598 26.7953C13.4674 26.7168 13.4908 26.6406 13.5287 26.571C13.5665 26.5014 13.618 26.4397 13.6803 26.3895C13.7426 26.3393 13.8144 26.3015 13.8916 26.2784C13.9689 26.2553 14.05 26.2472 14.1305 26.2546C14.2109 26.2621 14.2891 26.2849 14.3604 26.3218C14.5423 26.4185 14.7359 26.4926 14.9367 26.5424C15.1898 26.5994 15.4489 26.6275 15.7087 26.6261C15.8713 26.6261 16.0273 26.6891 16.1423 26.8013C16.2573 26.9135 16.3219 27.0656 16.3219 27.2242C16.3219 27.3828 16.2573 27.5349 16.1423 27.6471C16.0273 27.7592 15.8713 27.8222 15.7087 27.8222V27.8201Z" fill="#FCC63D"/>
<path d="M10.1914 14.0697V31.4067C10.1914 31.4852 10.1756 31.5629 10.1447 31.6354C10.1139 31.7079 10.0687 31.7738 10.0117 31.8292C9.95479 31.8847 9.88718 31.9286 9.81278 31.9585C9.73839 31.9885 9.65867 32.0038 9.57819 32.0037H4.6745C4.04389 32.003 3.43726 32.2393 2.98065 32.6634C2.52405 33.0876 2.25258 33.6671 2.22266 34.2813V15.8628C2.22251 15.5488 2.28583 15.2378 2.409 14.9476C2.53217 14.6574 2.71276 14.3938 2.94047 14.1717C3.16817 13.9496 3.43852 13.7735 3.73605 13.6534C4.03359 13.5333 4.35248 13.4715 4.6745 13.4717H5.28773V15.8628C5.28425 15.9434 5.29752 16.0238 5.32674 16.0993C5.35596 16.1747 5.40053 16.2436 5.45777 16.3019C5.51501 16.3601 5.58373 16.4064 5.6598 16.4381C5.73587 16.4697 5.81772 16.486 5.90042 16.486C5.98313 16.486 6.06498 16.4697 6.14105 16.4381C6.21712 16.4064 6.28584 16.3601 6.34308 16.3019C6.40031 16.2436 6.44488 16.1747 6.4741 16.0993C6.50333 16.0238 6.51659 15.9434 6.51311 15.8628V13.4717H9.57819C9.65876 13.4715 9.73857 13.4869 9.81303 13.5169C9.8875 13.5469 9.95516 13.591 10.0121 13.6465C10.0691 13.7021 10.1143 13.7681 10.145 13.8407C10.1758 13.9133 10.1916 13.9912 10.1914 14.0697Z" fill="#FCC63D"/>
<path d="M30.58 18.6962C31.5977 19.1267 32.2599 19.8382 32.2599 20.6452C32.2599 21.9664 30.4756 23.0363 28.275 23.0363C26.0743 23.0363 24.29 21.9664 24.29 20.6452C24.29 19.8319 24.9642 19.1214 25.9884 18.6846L30.58 18.6962Z" fill="#FCC63D"/>
<path d="M35.031 8.76723C35.0115 11.2836 34.2633 13.7434 32.8727 15.8632C32.8303 15.9406 32.7748 16.0127 32.7259 16.0901C31.5454 17.8623 30.041 19.4078 28.2876 20.6497C26.5387 19.4069 25.0387 17.8614 23.8623 16.0901L23.709 15.8632H23.6775C22.2972 13.7505 21.5539 11.3019 21.5322 8.79692C21.5322 7.05332 22.2425 5.38113 23.5067 4.14821C24.7709 2.9153 26.4856 2.22266 28.2734 2.22266C30.0613 2.22266 31.776 2.9153 33.0402 4.14821C34.3044 5.38113 35.0147 7.05332 35.0147 8.79692L35.031 8.76723Z" fill="#E64C3C"/>
<path d="M28.2451 12.8735C30.5913 12.8735 32.4932 10.9996 32.4932 8.68819C32.4932 6.37674 30.5913 4.50293 28.2451 4.50293C25.899 4.50293 23.9971 6.37674 23.9971 8.68819C23.9971 10.9996 25.899 12.8735 28.2451 12.8735Z" fill="#F9EAB0"/>
<path d="M28.2449 13.4715C27.2734 13.4797 26.3212 13.2063 25.5092 12.6858C24.6973 12.1654 24.0622 11.4215 23.6845 10.5485C23.3068 9.67544 23.2036 8.71267 23.3879 7.78232C23.5722 6.85198 24.0357 5.996 24.7197 5.32301C25.4036 4.65001 26.2772 4.19034 27.2295 4.00232C28.1818 3.8143 29.1699 3.90641 30.0684 4.26696C30.9669 4.6275 31.7354 5.24024 32.2762 6.0274C32.8171 6.81457 33.106 7.74069 33.1062 8.68824C33.1065 9.94962 32.5959 11.16 31.6854 12.0559C30.7749 12.9518 29.5383 13.4606 28.2449 13.4715ZM28.2449 5.10208C27.5159 5.09388 26.8008 5.29722 26.1905 5.68625C25.5803 6.07529 25.1024 6.63246 24.8175 7.28698C24.5327 7.9415 24.4538 8.66382 24.5909 9.36216C24.7279 10.0605 25.0748 10.7034 25.5873 11.209C26.0998 11.7147 26.7549 12.0604 27.4694 12.2022C28.1838 12.3439 28.9254 12.2754 29.5998 12.0052C30.2742 11.735 30.851 11.2754 31.257 10.6848C31.6629 10.0942 31.8797 9.39926 31.8797 8.68824C31.8792 7.74442 31.4975 6.8388 30.8171 6.16756C30.1368 5.49632 29.2126 5.11352 28.2449 5.10208Z" fill="#C03A2B"/>
<path d="M17.1328 18.5233C17.0437 18.4001 16.9101 18.3144 16.7588 18.2833C16.6076 18.2523 16.4499 18.2781 16.3174 18.3558L15.2844 19.0312L14.2428 18.3558C14.1082 18.2861 13.9519 18.2677 13.8042 18.3043C13.6565 18.3409 13.5281 18.4298 13.4439 18.5537C13.3598 18.6776 13.3259 18.8276 13.349 18.9745C13.3721 19.1214 13.4504 19.2546 13.5687 19.3483L14.1819 19.7491L13.5687 20.1489C13.4619 20.2183 13.3803 20.3187 13.3351 20.4359C13.29 20.553 13.2836 20.681 13.317 20.8018C13.3504 20.9227 13.4218 21.0302 13.5212 21.1094C13.6205 21.1886 13.7429 21.2354 13.8709 21.2432C13.9919 21.2433 14.1099 21.2062 14.208 21.1371L15.2496 20.4617L16.3228 21.1371C16.4209 21.2062 16.5389 21.2433 16.6598 21.2432C16.7908 21.2421 16.918 21.2002 17.0227 21.1235C17.1275 21.0469 17.2043 20.9395 17.242 20.8172C17.2797 20.6949 17.2762 20.564 17.2321 20.4437C17.188 20.3235 17.1056 20.2201 16.9969 20.1489L16.3837 19.7491L16.9969 19.3483C17.1264 19.2561 17.2136 19.1181 17.2401 18.9639C17.2665 18.8097 17.2299 18.6516 17.1383 18.5233H17.1328Z" fill="#C03A2B"/>
<path d="M23.8118 31.7048L25.2589 30.6953C25.332 30.6531 25.3952 30.5965 25.4447 30.5291C25.4941 30.4617 25.5286 30.3851 25.5461 30.304C25.5636 30.2229 25.5636 30.1392 25.5461 30.0581C25.5287 29.9771 25.4941 29.9004 25.4447 29.833C25.3953 29.7657 25.332 29.7091 25.259 29.6668C25.1859 29.6245 25.1047 29.5975 25.0204 29.5874C24.936 29.5774 24.8505 29.5845 24.7692 29.6084C24.6878 29.6323 24.6125 29.6724 24.5479 29.7262L22.7582 30.97L20.9674 29.7262C20.9028 29.6724 20.8274 29.6323 20.7461 29.6084C20.6648 29.5845 20.5792 29.5774 20.4949 29.5874C20.4106 29.5975 20.3293 29.6245 20.2563 29.6668C20.1832 29.7091 20.12 29.7657 20.0706 29.833C20.0211 29.9004 19.9866 29.9771 19.9691 30.0581C19.9517 30.1392 19.9517 30.2229 19.9692 30.304C19.9866 30.3851 20.0212 30.4617 20.0706 30.5291C20.12 30.5965 20.1833 30.6531 20.2563 30.6953L21.6992 31.7048L20.252 32.7153C20.1854 32.7604 20.1287 32.8178 20.0852 32.8844C20.0416 32.951 20.0121 33.0254 19.9982 33.1032C19.9844 33.181 19.9866 33.2608 20.0046 33.3378C20.0227 33.4148 20.0563 33.4875 20.1034 33.5517C20.1505 33.616 20.2103 33.6704 20.2792 33.7119C20.3481 33.7534 20.4247 33.7812 20.5047 33.7935C20.5847 33.8059 20.6664 33.8026 20.7451 33.7839C20.8238 33.7652 20.8979 33.7314 20.9631 33.6845L22.7538 32.4407L24.5435 33.6845C24.6473 33.757 24.7714 33.7966 24.8991 33.798C25.0283 33.7972 25.1541 33.7566 25.2583 33.6819C25.3625 33.6073 25.4398 33.5024 25.4792 33.3824C25.5187 33.2623 25.5182 33.1331 25.4778 33.0133C25.4375 32.8935 25.3594 32.7892 25.2546 32.7153L23.8118 31.7048Z" fill="#C03A2B"/>
<path d="M7.12983 32.6019C6.96719 32.6019 6.81122 32.5389 6.69621 32.4267C6.58121 32.3145 6.5166 32.1624 6.5166 32.0038V29.6127C6.5166 29.4541 6.58121 29.302 6.69621 29.1898C6.81122 29.0777 6.96719 29.0146 7.12983 29.0146C7.29247 29.0146 7.44845 29.0777 7.56346 29.1898C7.67846 29.302 7.74307 29.4541 7.74307 29.6127V32.007C7.74221 32.1651 7.67722 32.3164 7.56231 32.4278C7.4474 32.5393 7.29191 32.6019 7.12983 32.6019Z" fill="#C68D1C"/>
</svg>
