<svg width="24" height="24" viewBox="0 0 24 24" fill="none" xmlns="http://www.w3.org/2000/svg">
<path d="M8.42004 4.47031C9.56004 3.99031 10.77 3.73031 12 3.73031C15.53 3.73031 18.82 5.81031 21.11 9.41031C22.01 10.8203 22.01 13.1903 21.11 14.6003C20.78 15.1203 20.42 15.6103 20.05 16.0703" stroke="#A1A8B0" stroke-width="1.5" stroke-linecap="round" stroke-linejoin="round"/>
<path d="M15.5099 11.2998C15.2499 9.8898 14.0999 8.7398 12.6899 8.4798" stroke="#A1A8B0" stroke-width="1.5" stroke-linecap="round" stroke-linejoin="round"/>
<path d="M6.18003 18.2295C7.93003 19.5495 9.93003 20.2695 12 20.2695C15.53 20.2695 18.82 18.1895 21.11 14.5895C22.01 13.1795 22.01 10.8095 21.11 9.39953C20.32 8.15953 19.4 7.08953 18.4 6.22953" stroke="#A1A8B0" stroke-width="1.5" stroke-linecap="round" stroke-linejoin="round"/>
<path d="M15.58 4.47031C14.44 3.99031 13.23 3.73031 12 3.73031C8.46996 3.73031 5.17996 5.81031 2.88996 9.41031C1.98996 10.8203 1.98996 13.1903 2.88996 14.6003C3.21996 15.1203 3.57996 15.6103 3.94996 16.0703" stroke="#A1A8B0" stroke-width="1.5" stroke-linecap="round" stroke-linejoin="round"/>
<path d="M8.49006 11.2998C8.75006 9.8898 9.90006 8.7398 11.3101 8.4798" stroke="#A1A8B0" stroke-width="1.5" stroke-linecap="round" stroke-linejoin="round"/>
<path d="M15.58 19.5297C14.44 20.0097 13.23 20.2697 12 20.2697C8.46996 20.2697 5.17996 18.1897 2.88996 14.5897C1.98996 13.1797 1.98996 10.8097 2.88996 9.39969C3.21996 8.87969 3.57996 8.38969 3.94996 7.92969" stroke="#A1A8B0" stroke-width="1.5" stroke-linecap="round" stroke-linejoin="round"/>
<path d="M8.49006 12.7002C8.75006 14.1102 9.90006 15.2602 11.3101 15.5202" stroke="#A1A8B0" stroke-width="1.5" stroke-linecap="round" stroke-linejoin="round"/>
<path d="M17.82 5.77047C16.07 4.45047 14.07 3.73047 12 3.73047C8.46997 3.73047 5.17997 5.81047 2.88997 9.41047C1.98997 10.8205 1.98997 13.1905 2.88997 14.6005C3.67997 15.8405 4.59997 16.9105 5.59997 17.7705" stroke="#A1A8B0" stroke-width="1.5" stroke-linecap="round" stroke-linejoin="round"/>
<path d="M8.42004 19.5297C9.56004 20.0097 10.77 20.2697 12 20.2697C15.53 20.2697 18.82 18.1897 21.11 14.5897C22.01 13.1797 22.01 10.8097 21.11 9.39969C20.78 8.87969 20.42 8.38969 20.05 7.92969" stroke="#A1A8B0" stroke-width="1.5" stroke-linecap="round" stroke-linejoin="round"/>
<path d="M15.5099 12.7002C15.2499 14.1102 14.0999 15.2602 12.6899 15.5202" stroke="#A1A8B0" stroke-width="1.5" stroke-linecap="round" stroke-linejoin="round"/>
</svg>
