<svg width="43" height="41" viewBox="0 0 43 41" fill="none" xmlns="http://www.w3.org/2000/svg">
<path d="M41.1473 20.5C42.1705 20.5 43.0091 21.3313 42.9123 22.35C42.5996 25.6407 41.4561 28.8203 39.5673 31.6123C37.3264 34.9247 34.1314 37.5508 30.3652 39.1762C26.599 40.8015 22.4212 41.357 18.3323 40.7763C14.2434 40.1955 10.4168 38.5031 7.31089 35.9017C4.205 33.3003 1.95152 29.9003 0.820417 26.109C-0.310686 22.3177 -0.271449 18.2958 0.933428 14.5252C2.13831 10.7546 4.45773 7.39513 7.61384 4.84929C10.3237 2.66342 13.5517 1.15693 17.0052 0.45298C17.9537 0.259647 18.8336 0.942418 18.9644 1.90153C19.0974 2.8773 18.4045 3.76531 17.4434 3.97988C14.712 4.58964 12.1617 5.80868 10.0071 7.54665C7.39492 9.65372 5.47524 12.4342 4.47802 15.5549C3.4808 18.6757 3.44833 22.0044 4.38449 25.1423C5.32065 28.2802 7.18575 31.0942 9.75635 33.2473C12.327 35.4003 15.4941 36.801 18.8782 37.2817C22.2624 37.7624 25.7202 37.3026 28.8373 35.9574C31.9544 34.6122 34.5987 32.4386 36.4534 29.6971C37.9559 27.4763 38.8885 24.959 39.1886 22.3487C39.3055 21.3322 40.124 20.5 41.1473 20.5Z" fill="#199A8E"/>
</svg>
