<svg width="25" height="24" viewBox="0 0 25 24" fill="none" xmlns="http://www.w3.org/2000/svg">
<path d="M19.5102 20.1372L13.9746 14.647C13.4803 15.0392 12.9119 15.3497 12.2694 15.5784C11.6269 15.8072 10.9432 15.9215 10.2183 15.9215C8.42247 15.9215 6.90281 15.3049 5.65927 14.0716C4.41507 12.8376 3.79297 11.33 3.79297 9.549C3.79297 7.76796 4.41507 6.26044 5.65927 5.02645C6.90281 3.79312 8.42247 3.17645 10.2183 3.17645C12.014 3.17645 13.534 3.79312 14.7782 5.02645C16.0218 6.26044 16.6435 7.76796 16.6435 9.549C16.6435 10.268 16.5282 10.9461 16.2976 11.5833C16.0669 12.2206 15.7539 12.7843 15.3585 13.2745L20.9188 18.7892C21.1001 18.9689 21.1907 19.1895 21.1907 19.451C21.1907 19.7124 21.0918 19.9412 20.8941 20.1372C20.7129 20.317 20.4822 20.4068 20.2022 20.4068C19.9221 20.4068 19.6914 20.317 19.5102 20.1372ZM10.2183 13.9608C11.4539 13.9608 12.5043 13.532 13.3696 12.6745C14.2342 11.8163 14.6665 10.7745 14.6665 9.549C14.6665 8.32351 14.2342 7.28168 13.3696 6.42351C12.5043 5.56599 11.4539 5.13724 10.2183 5.13724C8.98262 5.13724 7.93217 5.56599 7.0669 6.42351C6.20229 7.28168 5.76998 8.32351 5.76998 9.549C5.76998 10.7745 6.20229 11.8163 7.0669 12.6745C7.93217 13.532 8.98262 13.9608 10.2183 13.9608Z" fill="black"/>
</svg>
