<svg xmlns="http://www.w3.org/2000/svg" viewBox="0 0 350.78 365.94"><defs><style>.cls-1,.cls-3{fill:none;stroke-linecap:round;stroke-linejoin:round;}.cls-1{stroke:#ae7c82;stroke-width:3px;opacity:0.46;}.cls-2,.cls-7{fill:#629995;}.cls-3{stroke:#cf7e78;stroke-width:8px;}.cls-4{font-size:23px;fill:#a15c64;}.cls-4,.cls-5,.cls-6,.cls-7{font-family:Georgia;}.cls-5,.cls-6,.cls-7{font-size:50px;}.cls-5{fill:#cf7e78;}</style></defs><g id="Livello_2" data-name="Livello 2"><g id="Definitivo"><path class="cls-1" d="M109.93,236.87c14.2,2.58,74.76,12.68,97.69-9.67,2.33-2.27,9.9-9.65,8-15.77-2.19-7.12-14.94-5.39-25.22-17.51a23.13,23.13,0,0,1-5.86-11.32c-1.46-8.54,3.2-15.46,4.66-17.63,1.28-1.91,6.2-9.23,14.57-11.14,9.55-2.18,13.75,5.26,23.29,5.6,15.88.58,34.14-15.49,32.54-26.31-2.14-14.52-41.27-27.2-57-13.2-3.83,3.42-7.12,9.21-6.16,14.75,2.32,13.36,29,22.71,42.4,14.14,2.18-1.39,7.44-5.43,9.07-12.24.48-2,1.54-6.47-.68-10-3.71-6-12.29-2.49-16.34-7.28-5-5.9-.18-20.93,9.11-29.46,8-7.38,22.48-12.65,30-6.84,11.59,8.93,2.05,40.27-6.43,41.36-2.47.32-3.88-2.06-7.49-5.17-13-11.25-30.44-11.27-41.38-11.28-10.12,0-21.88,0-33.23,7.52-8.45,5.61-19.08,17-16.06,24.82,1.93,5,8.89,7.07,14.52,8.74,4,1.18,10.23,3,15.9,1.06,7.44-2.58,11.19-10.78,14.84-21.88,11.54-35.14,5.68-49.33,16-56.15,8.06-5.34,21.29-3.06,28.63,4.17,8,7.89,9.64,22.33,3.89,27.88-4.19,4-10.68,1.81-21.6.29-8.2-1.15-53.41-7.46-68.66,11.52-6.28,7.81-5.77,17.76-12,18.7-4.8.72-9.24-4.63-10.45-6.09-9-10.87-9.91-32.09,1.05-46,13.07-16.53,40.74-19.77,49.84-9.62,4.75,5.3,5.94,15.93.66,21.69-3.71,4.06-11,6.08-16.32,3s-5.92-9.67-6-10.56c-.75-9.34,8-17.5,15.47-20.54,5.49-2.24,11.08-2,14.52-1.91A39.39,39.39,0,0,1,215.47,66c4.84,1.44,8.73,2.6,11.26,6,3.51,4.67,4.43,13.64-1,17.92a11.25,11.25,0,0,1-13,.38c-4-2.81-4.77-7.8-4.36-11,.9-6.85,8.47-12.88,18.9-13.92"/><path class="cls-2" d="M61.33,231.84A38.76,38.76,0,0,1,71.79,208.1,4.72,4.72,0,0,1,75,206.26a3.47,3.47,0,0,1,3.44,2.1,3.36,3.36,0,0,1-.62,3.89,30.71,30.71,0,0,0-6.16,8.67c-4.8,10.56-4.33,20.86,1.68,30.83a3.75,3.75,0,0,1-.94,5.06,3.54,3.54,0,0,1-5.07-1.08,37.86,37.86,0,0,1-6-18.1A31.11,31.11,0,0,1,61.33,231.84Z"/><path class="cls-2" d="M76.7,233.59a24.54,24.54,0,0,1,4.86-13.05,3.63,3.63,0,0,1,3.73-1.62,3.51,3.51,0,0,1,2.83,2.77,3.42,3.42,0,0,1-.69,3c-4.08,5.65-4.62,11.6-1.57,17.87a3.6,3.6,0,1,1-6.38,3.3,22.46,22.46,0,0,1-2.64-8.63C76.71,235.84,76.73,234.44,76.7,233.59Z"/><path class="cls-3" d="M205.17,49.48a72.61,72.61,0,0,0-16.15.09,79.83,79.83,0,0,0-48,24.68c-14,15.64-17.12,33.49-18.85,43.45-3.19,18.28,1.71,19.13-2.36,30-8.36,22.25-32.16,26.79-30.26,38.27,1.35,8.16,14.14,10.3,14.52,20.4a15.58,15.58,0,0,1-3.23,9.46c-2,2.72-3.82,3.11-4.21,5.36-.62,3.55,3,7.07,4.61,8.57,4.12,3.95,7.08,3.61,7.41,5.61.61,3.71-9.39,5.83-9.56,11.23-.11,3.22,3.42,3.94,5.45,10.53a19.61,19.61,0,0,1,1,6.4c-.1,5.59-2.8,7.13-2.81,10.85,0,4.73,4.3,9,7.59,10.88,6.13,3.55,13.12,1.55,25.33-2.13a122.62,122.62,0,0,0,16.93-6.49"/><text class="cls-4" transform="matrix(0.98, 0.19, -0.19, 0.98, 133.8, 116.37)">A</text><text class="cls-4" transform="translate(212.75 104.83) rotate(-12.21)">L</text><text class="cls-4" transform="translate(252.8 93.37) rotate(19.35)">K</text><text class="cls-4" transform="translate(267.7 122.31) rotate(-22.64)">A</text><text class="cls-4" transform="translate(177.27 122.33) rotate(-9.79)">I</text><text class="cls-4" transform="matrix(0.97, 0.24, -0.24, 0.97, 219.34, 155.86)">D</text><text class="cls-4" transform="translate(166.13 82.85) rotate(-28.81)">T</text><text class="cls-5" transform="matrix(0.82, 0.57, -0.57, 0.82, 62.42, 310.44)">T</text><text class="cls-5" transform="translate(91.75 330.49) rotate(22.91)">A</text><text class="cls-5" transform="translate(127.1 344.73) rotate(10.95)">L</text><text class="cls-5" transform="translate(161.19 350.97) rotate(-0.74)">K</text><text class="cls-6" transform="translate(199.18 349.28) rotate(-9.69)"> </text><text class="cls-7" transform="matrix(0.95, -0.31, 0.31, 0.95, 214.39, 347.24)">A</text><text class="cls-7" transform="translate(249.5 334.7) rotate(-28.17)">I</text><text class="cls-5" transform="matrix(0.78, -0.63, 0.63, 0.78, 270.5, 323.96)">D</text></g></g></svg>